<svg width="29" height="29" viewBox="0 0 29 29" fill="none" xmlns="http://www.w3.org/2000/svg">
<g clip-path="url(#clip0_29_306)">
<path d="M27.7913 3.62499C26.6342 4.44119 25.3531 5.06545 23.9972 5.47374C23.2694 4.63698 22.3023 4.04391 21.2265 3.77473C20.1507 3.50556 19.0182 3.57327 17.9822 3.9687C16.9461 4.36414 16.0565 5.06822 15.4337 5.98573C14.8108 6.90324 14.4848 7.9899 14.4997 9.09874V10.3071C12.3762 10.3621 10.272 9.89118 8.37464 8.93615C6.47724 7.98113 4.84547 6.57167 3.62467 4.83332C3.62467 4.83332 -1.20866 15.7083 9.66634 20.5417C7.17781 22.2309 4.21332 23.0779 1.20801 22.9583C12.083 29 25.3747 22.9583 25.3747 9.06249C25.3736 8.72591 25.3412 8.39017 25.278 8.05957C26.5112 6.84338 27.3815 5.30785 27.7913 3.62499V3.62499Z" stroke="#007074" stroke-width="3" stroke-linecap="round" stroke-linejoin="round"/>
</g>
<defs>
<clipPath id="clip0_29_306">
<rect width="29" height="29" fill="white"/>
</clipPath>
</defs>
</svg>
