<svg width="29" height="29" viewBox="0 0 29 29" fill="none" xmlns="http://www.w3.org/2000/svg">
<path fill-rule="evenodd" clip-rule="evenodd" d="M9.01988 1.28809C10.4373 1.22284 10.8892 1.20834 14.4997 1.20834C18.1102 1.20834 18.5621 1.22405 19.9783 1.28809C21.3944 1.35214 22.3611 1.57809 23.2069 1.90555C24.0926 2.24026 24.8962 2.76347 25.5608 3.44014C26.2374 4.10351 26.7594 4.90584 27.0929 5.79276C27.4216 6.63859 27.6463 7.60526 27.7116 9.01901C27.7768 10.4388 27.7913 10.8907 27.7913 14.5C27.7913 18.1105 27.7756 18.5624 27.7116 19.9798C27.6475 21.3936 27.4216 22.3602 27.0929 23.2061C26.7594 24.0931 26.2366 24.8967 25.5608 25.5611C24.8962 26.2378 24.0926 26.7598 23.2069 27.0933C22.3611 27.4219 21.3944 27.6467 19.9807 27.7119C18.5621 27.7772 18.1102 27.7917 14.4997 27.7917C10.8892 27.7917 10.4373 27.776 9.01988 27.7119C7.60613 27.6479 6.63947 27.4219 5.79363 27.0933C4.90662 26.7597 4.10296 26.2369 3.43859 25.5611C2.76238 24.8973 2.2391 24.094 1.90522 23.2073C1.57776 22.3614 1.35301 21.3948 1.28776 19.981C1.22251 18.5612 1.20801 18.1093 1.20801 14.5C1.20801 10.8895 1.22372 10.4376 1.28776 9.02143C1.3518 7.60526 1.57776 6.63859 1.90522 5.79276C2.23959 4.90594 2.76328 4.10268 3.4398 3.43893C4.10322 2.76287 4.90608 2.23959 5.79242 1.90555C6.63826 1.57809 7.60492 1.35334 9.01867 1.28809H9.01988ZM19.8707 3.68059C18.469 3.61655 18.0485 3.60326 14.4997 3.60326C10.9508 3.60326 10.5303 3.61655 9.12863 3.68059C7.83209 3.7398 7.12884 3.95609 6.66001 4.13855C6.04013 4.38022 5.59667 4.66659 5.13147 5.1318C4.69048 5.56082 4.3511 6.0831 4.13822 6.66034C3.95576 7.12918 3.73947 7.83243 3.68026 9.12897C3.61622 10.5306 3.60292 10.9511 3.60292 14.5C3.60292 18.0489 3.61622 18.4694 3.68026 19.871C3.73947 21.1676 3.95576 21.8708 4.13822 22.3397C4.35088 22.9161 4.69042 23.4393 5.13147 23.8682C5.56042 24.3093 6.08363 24.6488 6.66001 24.8615C7.12884 25.0439 7.83209 25.2602 9.12863 25.3194C10.5303 25.3835 10.9496 25.3968 14.4997 25.3968C18.0498 25.3968 18.469 25.3835 19.8707 25.3194C21.1673 25.2602 21.8705 25.0439 22.3393 24.8615C22.9592 24.6198 23.4027 24.3334 23.8679 23.8682C24.3089 23.4393 24.6485 22.9161 24.8611 22.3397C25.0436 21.8708 25.2599 21.1676 25.3191 19.871C25.3831 18.4694 25.3964 18.0489 25.3964 14.5C25.3964 10.9511 25.3831 10.5306 25.3191 9.12897C25.2599 7.83243 25.0436 7.12918 24.8611 6.66034C24.6195 6.04047 24.3331 5.59701 23.8679 5.1318C23.4388 4.69085 22.9166 4.35147 22.3393 4.13855C21.8705 3.95609 21.1673 3.7398 19.8707 3.68059ZM12.802 18.5975C13.7501 18.9921 14.8058 19.0454 15.7889 18.7482C16.7719 18.4509 17.6213 17.8216 18.1919 16.9677C18.7625 16.1138 19.0189 15.0883 18.9174 14.0663C18.8159 13.0444 18.3627 12.0894 17.6353 11.3644C17.1716 10.901 16.6109 10.5461 15.9936 10.3254C15.3763 10.1047 14.7177 10.0236 14.0653 10.0879C13.4129 10.1523 12.7828 10.3605 12.2205 10.6975C11.6582 11.0346 11.1777 11.4922 10.8134 12.0372C10.4492 12.5823 10.2103 13.2014 10.114 13.8499C10.0178 14.4984 10.0665 15.1601 10.2567 15.7875C10.4468 16.4149 10.7738 16.9923 11.2139 17.4782C11.654 17.9641 12.1964 18.3464 12.802 18.5975ZM9.66876 9.66909C10.3032 9.03469 11.0563 8.53145 11.8852 8.18811C12.7141 7.84478 13.6025 7.66806 14.4997 7.66806C15.3969 7.66806 16.2853 7.84478 17.1141 8.18811C17.943 8.53145 18.6962 9.03469 19.3306 9.66909C19.965 10.3035 20.4682 11.0566 20.8116 11.8855C21.1549 12.7144 21.3316 13.6028 21.3316 14.5C21.3316 15.3972 21.1549 16.2856 20.8116 17.1145C20.4682 17.9434 19.965 18.6965 19.3306 19.3309C18.0494 20.6122 16.3116 21.332 14.4997 21.332C12.6877 21.332 10.95 20.6122 9.66876 19.3309C8.38752 18.0497 7.66773 16.312 7.66773 14.5C7.66773 12.6881 8.38752 10.9503 9.66876 9.66909ZM22.8468 8.68551C23.0041 8.53721 23.1299 8.35887 23.217 8.16106C23.304 7.96325 23.3505 7.74998 23.3536 7.53388C23.3568 7.31779 23.3165 7.10325 23.2353 6.90299C23.1541 6.70272 23.0334 6.52079 22.8806 6.36797C22.7278 6.21515 22.5459 6.09455 22.3456 6.0133C22.1453 5.93205 21.9308 5.89181 21.7147 5.89496C21.4986 5.89811 21.2854 5.94459 21.0875 6.03164C20.8897 6.11869 20.7114 6.24455 20.5631 6.40176C20.2747 6.7075 20.1168 7.11361 20.1229 7.53388C20.129 7.95415 20.2987 8.35549 20.5959 8.65269C20.8931 8.9499 21.2944 9.11958 21.7147 9.1257C22.135 9.13183 22.5411 8.97393 22.8468 8.68551Z" fill="#007074"/>
</svg>
