<svg width="29" height="24" viewBox="0 0 29 24" fill="none" xmlns="http://www.w3.org/2000/svg">
<path fill-rule="evenodd" clip-rule="evenodd" d="M0.0161111 1.61111C0.0161111 1.18382 0.185853 0.774026 0.487995 0.471884C0.790137 0.169742 1.19993 0 1.62722 0H27.3889C27.8162 0 28.226 0.169742 28.5281 0.471884C28.8303 0.774026 29 1.18382 29 1.61111V19.8553C29 20.7099 28.6605 21.5295 28.0562 22.1338C27.452 22.7381 26.6324 23.0776 25.7778 23.0776H3.22222C2.36764 23.0776 1.54805 22.7381 0.943767 22.1338C0.339483 21.5295 0 20.7099 0 19.8553V2.13311C0 2.05578 0.00483332 1.98167 0.0161111 1.90756V1.61111ZM3.22222 5.19422V19.8553H25.7778V5.19422L17.9172 13.0548C17.0108 13.9609 15.7816 14.47 14.5 14.47C13.2184 14.47 11.9892 13.9609 11.0828 13.0548L3.22222 5.191V5.19422ZM5.75489 3.17067H23.2451L15.6407 10.7751C15.491 10.9249 15.3134 11.0437 15.1178 11.1248C14.9222 11.2059 14.7125 11.2476 14.5008 11.2476C14.2891 11.2476 14.0794 11.2059 13.8838 11.1248C13.6883 11.0437 13.5106 10.9249 13.3609 10.7751L5.7565 3.17067H5.75489Z" fill="#007074"/>
</svg>
