<svg width="17" height="31" viewBox="0 0 17 31" fill="none" xmlns="http://www.w3.org/2000/svg">
<path d="M4.60007 13.316C5.15236 13.316 5.60007 12.8683 5.60007 12.316V7.6975C5.60007 5.91993 6.30343 4.21596 7.55414 2.96024C8.80472 1.70465 10.5 1 12.2669 1H15.8669V5.158H12.2669C11.5937 5.158 10.9489 5.42653 10.4741 5.90322C9.99944 6.37977 9.7335 7.02527 9.7335 7.6975V12.316C9.7335 12.8683 10.1812 13.316 10.7335 13.316H15.5874L14.552 17.474H10.7335C10.1812 17.474 9.7335 17.9217 9.7335 18.474V29.79H5.60007V18.474C5.60007 17.9217 5.15236 17.474 4.60007 17.474H1V13.316H4.60007Z" stroke="white" stroke-width="2" stroke-linecap="round" stroke-linejoin="round"/>
</svg>
