<svg width="26" height="25" viewBox="0 0 26 25" fill="none" xmlns="http://www.w3.org/2000/svg">
<path d="M7.04951 1H19.3385C22.1759 1 24.4829 3.31051 24.4829 6.16909V18.5073C24.4829 21.3659 22.1759 23.6764 19.3385 23.6764H7.04951C4.21206 23.6764 1.90503 21.3659 1.90503 18.5073V6.16909C1.90503 3.31051 4.21206 1 7.04951 1Z" stroke="white" stroke-width="2" stroke-linecap="round" stroke-linejoin="round"/>
<path d="M17.12 11.7052C17.2411 12.5249 17.1016 13.3619 16.7217 14.097C16.3418 14.832 15.7412 15.4273 15.0059 15.7989C14.2706 16.1705 13.4377 16.2997 12.6254 16.1685C11.8132 16.0372 11.0622 15.6521 10.4796 15.0671C9.89687 14.4821 9.51225 13.727 9.38113 12.9089C9.25001 12.0908 9.37922 11.2521 9.75007 10.5124C10.1209 9.77267 10.7142 9.16995 11.4449 8.78926C12.1756 8.40861 13.0069 8.26911 13.8207 8.39026C14.6508 8.51385 15.4199 8.90229 16.0142 9.49898L16.5674 8.94801L16.0142 9.49898C16.6086 10.0957 16.9965 10.8692 17.12 11.7052Z" stroke="white" stroke-width="2" stroke-linecap="round" stroke-linejoin="round"/>
<path d="M19.9526 5.55115H19.9618" stroke="white" stroke-width="2" stroke-linecap="round" stroke-linejoin="round"/>
</svg>
