<svg width="25" height="25" viewBox="0 0 25 25" fill="none" xmlns="http://www.w3.org/2000/svg">
<path fill-rule="evenodd" clip-rule="evenodd" d="M21.4027 3.52449C20.2939 2.40395 18.9747 1.51545 17.5214 0.910464C16.0682 0.305475 14.5099 -0.00397586 12.9367 3.8563e-05C6.33984 3.8563e-05 0.969602 5.39045 0.966936 12.0164C0.966936 14.134 1.51756 16.2007 2.56414 18.0238L0.866943 24.2495L7.21177 22.5777C8.96683 23.5369 10.9331 24.0398 12.9313 24.0407H12.9367C19.5321 24.0407 24.9024 18.6503 24.905 12.0244C24.9096 10.4455 24.6024 8.88142 24.0012 7.42247C23.4001 5.96353 22.5169 4.63867 21.4027 3.52449ZM12.9367 22.0128H12.9327C11.1508 22.013 9.40178 21.5316 7.86906 20.6193L7.50642 20.4025L3.74138 21.3944L4.7453 17.7093L4.50932 17.3318C3.51312 15.7395 2.98575 13.8968 2.98811 12.0164C2.99078 6.50949 7.45309 2.02931 12.9407 2.02931C14.2476 2.02639 15.542 2.28374 16.7492 2.78647C17.9564 3.28919 19.0523 4.02731 19.9734 4.95809C20.8995 5.88444 21.6336 6.98588 22.1331 8.19876C22.6327 9.41164 22.8878 10.7119 22.8839 12.0244C22.8812 17.5313 18.4189 22.0128 12.9367 22.0128ZM18.3936 14.5315C18.0936 14.3803 16.6244 13.6548 16.3497 13.5544C16.0764 13.454 15.8778 13.4045 15.6778 13.7043C15.4778 14.0041 14.9045 14.6801 14.7298 14.8809C14.5552 15.0817 14.3805 15.1058 14.0819 14.9559C13.7833 14.8059 12.8193 14.4887 11.6768 13.466C10.7875 12.6696 10.1875 11.6871 10.0129 11.3859C9.83823 11.0847 9.99422 10.9227 10.1449 10.7728C10.2795 10.639 10.4435 10.4221 10.5928 10.2468C10.7422 10.0714 10.7915 9.94693 10.8915 9.74615C10.9915 9.54536 10.9421 9.37001 10.8662 9.22009C10.7915 9.06883 10.1929 7.59105 9.94356 6.99004C9.70224 6.40776 9.4556 6.4854 9.27161 6.47737C9.08106 6.46954 8.89036 6.46597 8.69966 6.46666C8.54801 6.47054 8.3988 6.50583 8.26137 6.57033C8.12395 6.63482 8.00128 6.72713 7.90105 6.84146C7.62641 7.14263 6.85447 7.86814 6.85447 9.34592C6.85447 10.8237 7.92638 12.2519 8.07571 12.4527C8.22503 12.6535 10.1849 15.6854 13.1846 16.9865C13.8992 17.2957 14.4565 17.4804 14.8898 17.6196C15.6058 17.8485 16.2577 17.815 16.7737 17.7387C17.3483 17.6531 18.5429 17.0132 18.7922 16.3118C19.0415 15.6104 19.0415 15.0094 18.9668 14.8836C18.8922 14.7577 18.6909 14.6814 18.3936 14.5315Z" fill="white"/>
</svg>
